<?xml version="1.0" encoding="UTF-8"?>
<svg version="1.1" viewBox="0 0 1600 1200" width="1280" height="1280" xmlns="http://www.w3.org/2000/svg">
<path transform="translate(871 406)" d="m0 0c8.77 2.45 17 6.34 25.3 10 6.67 2.95 13.3 5.52 20.4 7.42 15.8 4.31 30.5 10.3 45.4 17 4.02 1.81 8.06 3.55 12.1 5.29 13.9 5.96 27.6 12.3 41.4 18.6 4.31 1.97 8.62 3.91 13 5.82 34.9 15.5 34.9 15.5 41.2 28.7 1.88 6.33 0.2 12.3-2.51 18.2-4.08 7.34-9.17 13.7-14.6 20-6.39 7.54-12.2 15.4-17.8 23.5-3.18 4.54-6.42 9.04-9.68 13.5-4.2 5.81-8.37 11.6-12.5 17.5-5.78 8.22-11.6 16.4-17.5 24.5-1.29 1.78-2.57 3.56-3.85 5.35-4.8 6.58-10 12.6-15.6 18.4-5.85 6.22-11.2 12.7-16.4 19.5-1.14 1.49-2.28 2.99-3.42 4.48-1.51 1.97-3.01 3.94-4.5 5.93-6.01 7.99-13.3 16.7-23.6 18.6-2.09 0.24-2.09 0.24-4.07-0.32-3.44-3.44-4.78-6.74-6.12-11.4-2.11-6.87-4.87-13.3-7.81-19.9-4.49-10-8.03-20.2-11.1-30.8-6.06-0.9-11.5-0.98-17.6-0.12-0.7 0.09-1.4 0.18-2.13 0.28-3.29 0.43-6.57 0.88-9.86 1.37-4.5 0.56-9.02 0.7-13.6 0.88-15.1 0.63-29.8 1.96-44.7 4.54-12.2 2.09-24.4 3.74-36.6 5.2-0.78 0.1-1.57 0.19-2.37 0.29-7.2 0.86-14.4 1.72-21.6 2.53-34.5 3.92-67.7 11.3-101 19.9-3.25 0.84-6.51 1.66-9.77 2.48-33.3 8.37-33.3 8.37-65.7 19.5-1.61 0.62-1.61 0.62-3.25 1.26-12.6 5.01-25.6 10.6-35.9 19.6-1.6 1.27-1.6 1.27-4.6 2.27-1.1 1.84-1.1 1.84-2 4-1.56 2.86-3.18 5.68-4.81 8.5-0.42 0.76-0.85 1.52-1.29 2.31-2.76 4.77-5.37 9.18-11 10.8-3.88 0.04-5.58-0.29-8.41-2.98-1.99-4.83-2.59-8.48-1.5-13.6 1.99-4.24 4.46-8.07 7-12 3.79-6.07 6.21-12.4 8.75-19.1 3.65-9.32 7.41-17.7 13.2-25.9 0.67-0.97 1.33-1.94 2.01-2.94 7.8-11 17.5-20.7 28.2-28.9 3.75-2.91 7.4-5.95 11-8.99 23.2-19.1 47.2-37.4 72.8-53.2 0.72-0.44 1.44-0.89 2.17-1.34 62-38.5 129-55.4 202-60.4 3.43-0.29 6.81-0.76 10.2-1.28 0.24-5.74-0.61-10.8-1.93-16.4-0.21-0.92-0.43-1.84-0.65-2.79-2.52-10.7-5.45-21.2-8.38-31.8-0.19-0.69-0.38-1.39-0.58-2.1-0.53-1.9-1.06-3.81-1.59-5.71-2.68-10.1-4.32-23.1 1.02-32.6 0.55-0.83 0.55-0.83 1.11-1.68 0.52-0.84 1.04-1.69 1.57-2.56 6.69-3.94 15.8-1.28 22.8 0.51zm-11.4 18c-7.01 21.1 7.72 54.9 16.4 73.8 1.22 2.39 2.47 4.63 3.85 6.92 1.79 3.31 1.79 3.31 1.79 7.06-1 3.25-1 3.25-2.81 5.13-4.04 2.08-7.46 2.22-12 2.08-13.4-0.28-26 0.1-39.3 2.34-9.5 1.59-19 2.5-28.6 3.34-15.6 1.4-30.4 3.48-45.4 8.36-2.01 0.63-4.03 1.26-6.04 1.89-12.6 4.01-24.9 8.67-37 14.1-0.76 0.35-1.52 0.69-2.3 1.04-38.5 17.4-73.7 41.5-108 66.5-2.2 1.61-4.42 3.19-6.64 4.76-8.99 6.37-17.6 13-25.8 20.3-1.58 1.41-3.18 2.81-4.78 4.21-11.5 10.2-23.2 21.4-24.8 37.2 1.03-0.52 2.06-1.03 3.12-1.57 1.4-0.7 2.8-1.41 4.2-2.11 0.67-0.34 1.34-0.68 2.03-1.03 2.21-1.11 4.43-2.2 6.65-3.29 1.15-0.57 1.15-0.57 2.31-1.15 9.09-4.38 18.7-7.24 28.3-10.3 2.58-0.83 5.16-1.66 7.74-2.49 1.72-0.55 3.44-1.1 5.16-1.65 4.76-1.52 9.5-3.09 14.2-4.7 11.1-3.77 22.3-6.93 33.5-9.98 1.56-0.42 1.56-0.42 3.14-0.84 38.1-10.2 76.6-17.7 115-23.9 3.79-0.61 7.58-1.23 11.4-1.88 27.7-4.75 55.6-6.64 83.6-8.31 3.2-0.19 6.4-0.39 9.6-0.58 2.23-0.13 4.46-0.26 6.69-0.38l4.08-0.24c1.17-0.07 2.35-0.14 3.56-0.21 5.97-0.71 5.97-0.71 10.7-4.04 0.34-0.61 0.68-1.22 1.03-1.85 1.79-2.73 2.5-3.49 5.5-5.12 3.84-0.48 4.95 0.32 8 2.62 1.45 2.5 1.45 2.5 2.58 5.45 0.41 1.07 0.82 2.15 1.25 3.25 1.79 5.03 3.47 10.1 5.05 15.2 0.34 1.07 0.67 2.13 1.02 3.23 1.71 5.42 3.4 10.8 5.07 16.3 0.31 1 0.62 2 0.94 3.03 0.59 1.89 1.17 3.79 1.75 5.69 0.4 1.28 0.4 1.28 0.8 2.58 0.23 0.74 0.46 1.48 0.69 2.25 0.97 2.35 2.26 4.11 3.85 6.07 3.86-1.28 4.19-2.61 6.25-6.06 5.1-7.9 11.5-14.4 18-21.2 7.2-7.47 13.4-15.3 19.3-23.8 2.53-3.6 5.12-7.17 7.71-10.7 1.11-1.53 2.22-3.07 3.33-4.6 0.55-0.77 1.11-1.54 1.68-2.33 2.19-3.03 4.37-6.05 6.56-9.08 1.08-1.49 2.15-2.98 3.23-4.47 2.75-3.81 5.5-7.62 8.24-11.4 8.19-11.4 16.4-22.7 25.6-33.3 4.08-4.69 7.93-9.47 11.6-14.5 0.61-0.84 0.61-0.84 1.23-1.68 3.16-4.48 6.06-8.96 6.34-14.6-1.75-3.61-4.83-4.9-8.26-6.65-0.73-0.39-1.45-0.77-2.2-1.17-1.5-0.8-3.01-1.6-4.52-2.38-1.91-1.01-3.8-2.04-5.67-3.11-23.3-13-48.8-22.1-73.5-32-17.5-7.02-34.9-14.1-52-22-21.6-10.4-21.6-10.4-45-14z" fill="#000100"/>
<path transform="translate(537,120)" d="m0 0c3.37 1.12 3.83 1.76 5.83 4.55 0.54 0.75 1.09 1.5 1.65 2.28 0.88 1.23 0.88 1.23 1.77 2.48 1.25 1.73 2.5 3.46 3.76 5.19 0.65 0.9 1.3 1.8 1.97 2.73 3.34 4.58 6.74 9.11 10.1 13.6 0.63 0.83 1.26 1.67 1.9 2.53 2.94 3.91 5.89 7.8 8.98 11.6-1.46 3.69-3.3 5.16-6.62 7.25-0.82 0.52-1.64 1.04-2.48 1.58-0.63 0.38-1.25 0.77-1.9 1.17-8.23-10.8-16.2-21.8-24-33 0 3.58 1.8 6.88 3.1 10.2 0.64 1.67 1.28 3.34 1.93 5 1.01 2.63 2.04 5.27 3.06 7.9 0.99 2.53 1.97 5.07 2.95 7.6 0.31 0.79 0.62 1.58 0.94 2.39 2.13 5.59 2.13 5.59 1.02 8.93-1.89 1.89-1.89 1.89-4.25 3.81-0.77 0.65-1.54 1.29-2.33 1.96-2.42 1.23-2.42 1.23-4.69 0.84-4.02-2.37-7.59-5.2-11.2-8.11-1.6-1.26-3.2-2.53-4.8-3.79-0.79-0.62-1.58-1.25-2.4-1.89-3.29-2.6-6.6-5.15-9.92-7.7-1.05-0.8-2.09-1.6-3.17-2.42-0.73-0.56-1.46-1.12-2.21-1.7 1.57 3.62 3.8 6.27 6.38 9.25 6.23 7.31 11.9 15 17.6 22.8-1.46 3.08-2.64 4.82-5.44 6.81-0.59 0.44-1.19 0.88-1.81 1.33-1.75 0.86-1.75 0.86-4.75-0.14-1.4-1.56-1.4-1.56-2.86-3.59-0.55-0.75-1.1-1.51-1.67-2.29-0.59-0.82-1.18-1.65-1.78-2.5-1.26-1.73-2.51-3.46-3.77-5.19-0.97-1.34-0.97-1.34-1.95-2.71-3.15-4.35-6.34-8.66-9.53-13-3.86-5.22-7.68-10.5-11.4-15.8 2.96-3.09 6.08-5.74 9.5-8.31 0.94-0.72 1.88-1.44 2.84-2.18 2.66-1.51 2.66-1.51 4.62-1.25 2.13 0.77 3.57 1.66 5.37 3.04 0.63 0.48 1.25 0.96 1.9 1.45 0.67 0.51 1.33 1.03 2.02 1.56 1.42 1.09 2.84 2.17 4.27 3.26 0.73 0.56 1.46 1.12 2.22 1.7 3.73 2.85 7.5 5.67 11.3 8.48 1.35 1.02 2.71 2.03 4.06 3.05 0.97 0.72 1.94 1.45 2.94 2.2-2.18-8.97-5.34-17.5-8.69-26.1-0.76-1.98-1.53-3.95-2.29-5.92-0.68-1.77-1.37-3.54-2.06-5.31-0.96-2.71-0.96-2.71-0.96-4.71 2.28-1.77 4.56-3.43 6.94-5.06 4.22-2.75 4.22-2.75 8.06-5.94z" fill="#000100"/>
<path transform="translate(432,193)" d="m0 0c4.07 3.92 7.65 8.1 11.2 12.5 0.57 0.7 1.14 1.41 1.72 2.14 4.71 5.84 9.3 11.8 13.8 17.7 2.28 2.99 4.58 5.96 6.87 8.94 0.85 1.1 1.7 2.2 2.54 3.3 0.61 0.79 1.22 1.58 1.84 2.39-0.38 0.5-0.75 0.99-1.14 1.5-0.51 0.68-1.02 1.36-1.55 2.06-0.5 0.66-1 1.33-1.51 2.01-2.31 3.11-4.55 6.27-6.8 9.43-1.17-0.56-2.35-1.11-3.56-1.69-10.8-5.12-21.6-10.2-32.4-15.3 0.52 0.56 1.04 1.12 1.58 1.7 4.6 5.01 8.97 10.1 13.2 15.5 0.45 0.57 0.89 1.14 1.35 1.72 3.08 3.96 6.01 8 8.9 12.1-1.44 1.77-2.87 3.54-4.31 5.31-0.8 0.99-1.6 1.97-2.43 2.99-1.69 2.02-3.38 3.86-5.26 5.7-0.97-0.44-1.93-0.89-2.93-1.34-25-11.5-25-11.5-50.1-22.7 0-3.8 1.14-4.78 3.5-7.69 0.65-0.81 1.3-1.61 1.97-2.45 0.76-0.92 0.76-0.92 1.53-1.86 9.07 2.59 17.2 6.93 25.6 11.2 1.5 0.76 3 1.51 4.5 2.27 3.65 1.84 7.3 3.69 10.9 5.54-0.86-0.99-1.72-1.99-2.6-3.01-3.92-4.57-7.7-9.24-11.5-13.9-2.49-3.09-4.98-6.17-7.54-9.2-1.09-1.3-1.09-1.3-2.19-2.63-0.63-0.74-1.25-1.47-1.9-2.23-1.29-2.02-1.29-2.02-1.29-6.02 1.53-2.36 1.53-2.36 3.5-4.75 0.65-0.8 1.3-1.6 1.97-2.42 0.5-0.61 1.01-1.21 1.53-1.83 4.44 1.38 8.54 3.12 12.7 5.15 0.62 0.3 1.24 0.6 1.88 0.91 1.97 0.96 3.93 1.92 5.9 2.88 1.32 0.64 2.64 1.28 3.96 1.92 5.53 2.68 11 5.38 16.5 8.14-4.95-6.13-9.98-12.2-15.1-18.1-4.47-5.17-8.78-10.4-12.9-15.9 1.41-3.04 3.09-5.59 5.12-8.25 0.54-0.71 1.08-1.41 1.64-2.14 0.41-0.53 0.82-1.06 1.24-1.61z" fill="#000100"/>
<path transform="translate(782,1046)" d="m0 0c5.64 3.34 8.76 7.91 11 14 0.75 2.94 0.75 2.94 1 6 0.05 0.62 0.1 1.24 0.16 1.88 0.47 10.8-1.77 22-9.16 30.1-2.43 2.11-4.65 4-8 4 1.62 2.6 3.25 5.21 4.88 7.81 0.46 0.74 0.92 1.48 1.39 2.24 0.67 1.07 0.67 1.07 1.35 2.16 0.41 0.65 0.81 1.31 1.23 1.98 1.03 1.62 2.09 3.22 3.15 4.81-2.58-0.11-5.17-0.24-7.75-0.38-0.73-0.03-1.46-0.06-2.21-0.09-7.38-0.4-7.38-0.4-10-2.53-1.21-2.09-2.35-4.22-3.44-6.38-2.04-3.68-3.73-6.23-7.65-8.08-2.23-0.57-4.47-1.11-6.71-1.61-6.16-1.79-10.2-5.85-13.6-11.1-4.96-10.4-3.43-22.5 0.24-33 2.69-6.31 6.09-10.4 12.2-13.8 10.6-4.09 21.7-2.48 32 2zm-27 13c-4.02 7.79-5.9 16.6-3.34 25.2 1.64 3.36 3.47 4.87 6.65 6.79 5.25 1.42 8.7 1.13 13.4-1.56 5.15-5.59 6.23-13 6.25-20.4-0.37-5.03-1.28-8.12-4.5-12.1-5.76-4.08-14.1-3.47-18.5 2.06z" fill="#000100"/>
<path transform="translate(1261,658)" d="m0 0c6.96 1.42 13.6 3.38 20.3 5.62 1.05 0.35 2.1 0.7 3.19 1.06 2.2 0.73 4.4 1.46 6.6 2.2 3.38 1.12 6.77 2.24 10.2 3.35 2.14 0.72 4.29 1.43 6.43 2.15 1.02 0.33 2.03 0.66 3.08 1.01 0.93 0.31 1.86 0.62 2.82 0.95 0.83 0.27 1.65 0.54 2.5 0.83 1.88 0.83 1.88 0.83 2.88 2.83-0.57 3.08-1.61 6.02-2.56 9-0.24 0.83-0.48 1.67-0.73 2.52-0.26 0.8-0.51 1.6-0.78 2.42-0.22 0.73-0.45 1.46-0.68 2.21-2.19 3.24-5.55 3.51-9.22 4.25-2.25 0.4-4.5 0.76-6.75 1.11-1.24 0.19-1.24 0.19-2.5 0.39-1.73 0.28-3.46 0.55-5.19 0.81-2.65 0.41-5.29 0.83-7.94 1.25-1.68 0.27-3.37 0.53-5.06 0.8-0.79 0.12-1.57 0.25-2.38 0.38-3.77 0.57-7.4 1.01-11.2 0.86v2c0.93 0.1 1.87 0.19 2.83 0.29 5.13 0.74 9.95 2.41 14.9 4.02 0.97 0.32 1.94 0.63 2.94 0.95 2.79 0.91 5.58 1.82 8.37 2.74 0.72 0.24 1.44 0.48 2.19 0.72 3.27 1.08 6.54 2.17 9.81 3.28-0.48 1.79-0.96 3.58-1.44 5.38-0.26 0.99-0.53 1.99-0.81 3.02-0.75 2.6-0.75 2.6-1.75 4.6-6.99-1.42-13.6-3.41-20.4-5.7-1.05-0.35-2.1-0.7-3.19-1.06l-9.99-3.36c-2.27-0.77-4.55-1.53-6.82-2.29-5.54-1.86-11.1-3.72-16.6-5.59 0.32-1.44 0.63-2.88 0.95-4.31 0.27-1.2 0.27-1.2 0.54-2.43 0.59-2.59 1.26-5.15 2.01-7.7 0.24-0.82 0.47-1.64 0.72-2.49 0.78-2.07 0.78-2.07 2.78-4.07 1.86-0.5 1.86-0.5 4.14-0.85 1.28-0.21 1.28-0.21 2.59-0.42 0.93-0.14 1.85-0.28 2.8-0.42 0.95-0.15 1.89-0.3 2.87-0.46 3.03-0.48 6.07-0.94 9.1-1.41 3.03-0.48 6.07-0.95 9.1-1.43 1.89-0.3 3.78-0.59 5.67-0.88 0.85-0.13 1.71-0.27 2.59-0.41 0.75-0.11 1.5-0.23 2.28-0.35 1.94-0.3 1.94-0.3 3.86-1.37-1.11-0.35-2.22-0.71-3.36-1.07-4.12-1.31-8.23-2.63-12.3-3.95-1.78-0.57-3.56-1.14-5.34-1.7-2.56-0.82-5.12-1.64-7.67-2.46-1.2-0.38-1.2-0.38-2.42-0.76-5.64-1.83-5.64-1.83-7.87-4.06l4-12z" fill="#000100"/>
<path transform="translate(323,641)" d="m0 0c0.32 1.44 0.63 2.87 0.94 4.31 0.17 0.8 0.35 1.6 0.52 2.43 0.78 4.73 1.15 9.49 1.54 14.3-0.51 0.36-1.02 0.71-1.55 1.08-12.2 8.52-24.4 17.2-36.4 25.9 0.6-0.08 1.2-0.16 1.83-0.24 13-1.74 26.1-3.37 39.2-4.76 0.99 6.43 0.99 6.43 2 13-6.33 2.07-12.7 2.89-19.3 3.73-1.16 0.15-2.33 0.3-3.53 0.46-3.71 0.48-7.42 0.96-11.1 1.43-2.52 0.33-5.04 0.66-7.56 0.99-6.17 0.8-12.3 1.6-18.5 2.39-0.73-4.66-1.38-9.32-2-14-0.21-1.23-0.21-1.23-0.43-2.49-0.23-1.99-0.23-1.99 0.43-5.51 2.51-2.67 5.44-4.43 8.56-6.31 1.75-1.12 3.49-2.23 5.23-3.35 1.32-0.83 1.32-0.83 2.66-1.68 4.4-2.86 8.57-6.05 12.7-9.23 3.15-2.37 6.07-4.18 9.81-5.43v-2c-0.84 0.18-1.68 0.36-2.54 0.55-7.79 1.63-15.6 2.99-23.5 4.14-0.88 0.13-1.77 0.26-2.68 0.4-4.83 0.68-9.44 1.05-14.3 0.91l-1-13c6.79-1.41 13.6-2.58 20.4-3.51 0.95-0.13 1.9-0.26 2.88-0.39 1.99-0.27 3.98-0.55 5.97-0.81 3.04-0.42 6.09-0.84 9.13-1.25 1.94-0.27 3.88-0.53 5.83-0.8 1.36-0.19 1.36-0.19 2.74-0.38 4.03-0.54 7.94-1.03 12-0.86z" fill="#000100"/>
<path transform="translate(650,1022)" d="m0 0c5.48 0.9 10.6 2.13 15.9 4.08 0.97 0.36 1.93 0.72 2.93 1.09 0.73 0.27 1.46 0.55 2.21 0.83 1 6.05 2 12.1 2.99 18.2l1.02 6.18c0.49 2.95 0.97 5.91 1.46 8.87 0.15 0.92 0.3 1.84 0.46 2.79 0.21 1.29 0.21 1.29 0.43 2.61 0.12 0.75 0.25 1.51 0.37 2.29 0.27 2.11 0.27 2.11 0.27 6.11h2c0.2-0.88 0.39-1.75 0.59-2.66 3-12.7 7.17-25 11.4-37.3l13 4c-1.37 6.72-3.24 13.1-5.44 19.6-0.33 0.98-0.66 1.96-0.99 2.96-1.04 3.09-2.09 6.18-3.13 9.27-1.05 3.11-2.1 6.22-3.14 9.33-0.65 1.92-1.3 3.85-1.95 5.78-0.29 0.87-0.59 1.74-0.89 2.64-0.26 0.76-0.52 1.52-0.78 2.31-0.65 2.03-1.19 4.06-1.68 6.13-5.43-1.34-10.8-2.77-16.1-4.75-0.72-0.26-1.43-0.53-2.16-0.8-4.26-3.48-4.46-11.9-5.29-17.1-0.13-0.8-0.26-1.6-0.39-2.43-0.28-1.68-0.55-3.36-0.81-5.05-0.42-2.57-0.83-5.14-1.25-7.72-0.27-1.64-0.53-3.28-0.8-4.92-0.12-0.77-0.25-1.54-0.38-2.33-0.53-3.36-0.86-6.49-0.86-9.91h-2c-0.11 1.15-0.23 2.31-0.34 3.5-0.55 4.38-1.72 8.34-3.16 12.5-0.25 0.72-0.49 1.44-0.74 2.19-0.77 2.27-1.54 4.54-2.32 6.81-0.53 1.55-1.05 3.11-1.58 4.66-1.28 3.78-2.57 7.56-3.86 11.3-1.79-0.48-3.58-0.96-5.38-1.44-0.99-0.26-1.99-0.53-3.02-0.81-2.6-0.75-2.6-0.75-4.6-1.75 2.7-11 6.5-21.7 10.1-32.4 0.97-2.88 1.94-5.76 2.91-8.64 0.6-1.78 1.2-3.56 1.8-5.35 0.27-0.8 0.54-1.61 0.82-2.43 0.24-0.71 0.47-1.41 0.72-2.14 0.63-1.98 1.15-3.98 1.63-6z" fill="#000100"/>
<path transform="translate(1115,176)" d="m0 0c4.09 1.45 7.38 3.37 10.9 5.94 0.98 0.69 1.97 1.38 2.99 2.09 2.81 3.92 2.4 5.97 1.73 10.6-0.3 1.66-0.3 1.66-0.6 3.35-0.11 0.63-0.22 1.27-0.33 1.92-1.01 5.85-2.12 11.7-3.24 17.5-0.42 2.21-0.84 4.43-1.25 6.64-0.13 0.68-0.27 1.36-0.4 2.07-0.31 1.61-0.55 3.23-0.78 4.86l1 1c0.61-0.79 1.21-1.58 1.84-2.39 0.4-0.52 0.8-1.04 1.21-1.57 0.89-1.16 1.78-2.32 2.68-3.49 2.35-3.05 4.7-6.11 7.06-9.17 0.44-0.58 0.88-1.15 1.34-1.75 1.25-1.62 2.5-3.23 3.74-4.85 1.72-2.25 3.44-4.51 5.13-6.78 4.11 1.45 7.43 3.51 11 6-1.44 4.2-3.5 7.21-6.25 10.7-0.9 1.14-1.8 2.29-2.7 3.44-0.73 0.93-0.73 0.93-1.48 1.87-1.69 2.15-3.36 4.3-5.03 6.46-6.4 8.28-12.8 16.5-19.5 24.5-3.63-1.7-6.97-3.73-10.3-5.94-1.09-0.69-2.18-1.38-3.3-2.09-2.65-3.3-2.73-3.76-2.44-7.76 0.31-2.08 0.67-4.15 1.05-6.21 0.22-1.26 0.44-2.52 0.67-3.82 0.75-4.22 1.57-8.42 2.39-12.6 0.43-2.16 0.85-4.33 1.27-6.5 0.37-1.95 0.75-3.9 1.14-5.84 0.64-3.33 0.64-3.33 0.53-7.22-0.59 0.85-1.19 1.7-1.8 2.57-5.41 7.67-11 15.1-16.8 22.5-1.82 2.3-3.61 4.6-5.35 6.96-4.59-1.49-7.44-3.85-11-7 1.66-3.82 4.16-6.9 6.75-10.1 0.99-1.25 1.98-2.5 2.97-3.75 0.53-0.66 1.06-1.33 1.6-2.01 2.99-3.77 5.92-7.57 8.87-11.4 4.88-6.29 9.8-12.6 14.8-18.8z" fill="#000100"/>
<path transform="translate(788,59)" d="m0 0c0.47 2.05 0.47 2.05 0.78 4.61 0.12 0.96 0.24 1.92 0.36 2.91 0.12 1.04 0.24 2.08 0.37 3.15 0.19 1.6 0.19 1.6 0.39 3.23 0.28 2.27 0.55 4.54 0.81 6.8 0.41 3.46 0.83 6.91 1.25 10.4 0.27 2.21 0.53 4.41 0.8 6.61 0.19 1.54 0.19 1.54 0.38 3.12 0.59 5.11 1 10.1 0.86 15.2-2.68 0.51-5.36 1-8.05 1.45-2.86 0.47-2.86 0.47-5.18 1.26-1.96 0.54-1.96 0.54-5.77 0.29-3.33-2.85-5.59-6.36-8-10-0.8-1.18-1.61-2.37-2.41-3.55-1.7-2.52-3.38-5.06-5.05-7.6-3.74-5.69-7.64-11.3-11.5-16.8 0.71 8.66 1.79 17.2 2.98 25.8 1.31 9.68 1.31 9.68 1.02 14.2-1.73 1.73-4.14 1.41-6.5 1.62-1 0.1-2 0.2-3.03 0.29-0.82 0.03-1.63 0.06-2.47 0.09-1.66-1.66-1.46-3.75-1.76-6.02-0.14-1.07-0.28-2.15-0.42-3.25-0.15-1.17-0.3-2.33-0.45-3.53-0.15-1.19-0.31-2.38-0.47-3.61-0.32-2.52-0.64-5.05-0.97-7.57-0.49-3.87-0.99-7.74-1.49-11.6-0.32-2.45-0.63-4.89-0.94-7.34-0.15-1.16-0.3-2.32-0.46-3.52-0.14-1.08-0.27-2.16-0.41-3.27-0.12-0.95-0.25-1.9-0.37-2.88-0.26-2.4-0.26-2.4-0.26-5.4 2-0.34 4-0.67 6-1 1.67-0.28 1.67-0.28 3.38-0.56 1.19-0.15 2.39-0.29 3.62-0.44 0.66-0.12 1.32-0.24 2-0.36 2.05-0.23 2.05-0.23 6 0.36 2.67 2.44 4.39 5.36 6.25 8.44 1.11 1.73 2.22 3.47 3.34 5.2 0.56 0.89 1.12 1.78 1.69 2.69 2.71 4.22 5.62 8.28 8.53 12.4 1.01 1.42 2.02 2.84 3.02 4.26 1.08 1.51 1.08 1.51 2.17 3.05l1-1c-0.28-2.73-0.63-5.41-1.03-8.12-0.24-1.67-0.47-3.35-0.71-5.02-0.38-2.65-0.76-5.3-1.14-7.96-0.37-2.55-0.73-5.1-1.09-7.65-0.18-1.19-0.18-1.19-0.36-2.41-0.78-5.61-0.78-5.61 0.33-7.84 2.43-0.48 2.43-0.48 5.44-0.75 1.48-0.15 1.48-0.15 2.99-0.3 2.57 0.05 2.57 0.05 4.57 2.05z" fill="#000100"/>
<path transform="translate(1160 900)" d="m0 0c8.79 5.89 14.3 14 17.1 24.2 1.08 6.73-0.51 12.5-3.73 18.4-2.68 3.68-5.73 6.83-9 10-0.82 0.79-0.82 0.79-1.65 1.6-1.75 1.69-3.51 3.36-5.28 5.02-0.57 0.54-1.14 1.07-1.73 1.62-4.09 3.76-4.09 3.76-6.34 3.76-1.3-1.26-1.3-1.26-2.87-3.13-0.62-0.73-1.24-1.46-1.89-2.21-0.73-0.88-1.47-1.76-2.24-2.66-1.91-2.26-3.83-4.51-5.75-6.75-0.51-0.6-1.02-1.2-1.55-1.82-3.43-4-6.93-7.93-10.5-11.8-6.48-7.02-6.48-7.02-9.25-10.1-0.53-0.59-1.05-1.18-1.6-1.78-1.41-1.82-2.38-3.64-3.34-5.72 3.77-3.22 7.55-6.43 11.3-9.61 1.4-1.17 2.79-2.36 4.18-3.54 10.4-8.55 21.8-12.4 34.1-5.45zm-29.6 17.6c1.66 4.14 4.66 7.07 7.69 10.2 1.09 1.15 2.17 2.31 3.26 3.47 0.52 0.56 1.05 1.12 1.59 1.7 2.43 2.63 4.75 5.35 7.06 8.09 1.53 1.74 1.53 1.74 4.4 3.49 5.08-3.69 5.08-3.69 8-9 0.68-5.83-0.03-9.21-3.36-14-3.41-4.09-8.03-9.37-13.5-10.3-6.75-0.39-10.2 1.82-15.1 6.31z" fill="#000100"/>
<path transform="translate(548,976)" d="m0 0c11.8 4.29 26.8 13 32.6 24.4 2.89 7.89 2.13 15.6-1.3 23.2-4.54 8.28-10.6 14.7-19.2 18.8-13.1 2.62-22.8-2.33-33.8-8.94-0.81-0.49-1.63-0.97-2.47-1.47-1.13-0.7-1.13-0.7-2.29-1.41-0.68-0.42-1.37-0.84-2.07-1.27-0.49-0.43-0.98-0.85-1.48-1.29 0-3.27 0.45-4.12 2.1-6.82 0.46-0.77 0.93-1.54 1.41-2.34 0.51-0.83 1.02-1.67 1.55-2.53 0.53-0.87 1.06-1.73 1.6-2.63 6.18-10.1 12.5-20.2 18.8-30.2 1.54-2.47 3.04-4.95 4.53-7.45zm6 19c-1.71 1.96-1.71 1.96-3.09 4.6-0.56 0.97-1.11 1.93-1.69 2.93-0.85 1.53-0.85 1.53-1.72 3.09-1.13 2-2.27 3.99-3.41 5.98-0.79 1.41-0.79 1.41-1.6 2.85-1.24 2.12-2.53 4.09-3.96 6.07-0.5 0.82-1.01 1.64-1.53 2.48 0.72 3.3 0.72 3.3 4.06 4.69 4.66 1.78 9.08 2.51 13.8 0.54 5.99-3.73 9.95-9.99 11.8-16.7 0.55-3.57 0.55-5.89-0.76-9.28-2.49-2.88-4.83-5.03-7.94-7.25h-4z" fill="#000100"/>
<path transform="translate(326 471)" d="m0 0c5.21 3.84 8.38 8.22 9.74 14.7 1 9.8 0.15 19.4-5.74 27.5-5.12 5.85-11 8.65-18.6 9.31-10.2 0.44-20-0.66-28.4-7-5.17-5.02-7.53-11.8-8.04-18.9 0.13-8.75 1.71-17.4 7.5-24.2 11.4-10.9 30.9-9.35 43.5-1.47zm-36.6 15c-2.41 3.84-2.13 7.82-1.38 12.2 2.99 4.25 6.91 6.91 12 8 10.6 1.05 10.6 1.05 20-3 2.75-2.9 3.45-4.96 3.5-8.94-0.13-3.63-0.38-4.88-2.44-8-8.81-5.94-23.7-9.11-31.7-0.26z" fill="#000100"/>
<path transform="translate(396 290)" d="m0 0c6.55 4.56 11.8 10.1 13.3 18.2 0.66 10.2-3.72 19.1-9.87 27-5.33 5.58-10.3 7.24-18 7.5-11.5-0.38-19.6-5.08-27.7-13-4.96-5.53-7.1-11.4-6.85-18.7 1.47-9.75 6.72-18.9 14.4-25.1 12.4-6.58 23.6-2.79 34.8 4.19zm-31.7 10.4c-2.64 3.71-4 6.08-4 10.7 2.2 6.86 6.66 10.2 12.9 13.6 5.12 2.37 8.54 3.53 14.1 2.57 3.13-1.63 5.25-3.01 7.38-5.81 1.29-4.54 1.19-7.97-0.81-12.3-4.87-5.57-11.6-10.2-19.1-11.3-4.5-0.12-6.76-0.17-10.5 2.56z" fill="#000100"/>
<path transform="translate(1241 324)" d="m0 0c8.18 6.26 14.5 14.7 16 25.1 0.33 8.88-1.99 14.4-7.82 21-7.62 7.28-18.5 12.4-29.1 12.3-7.44-1-13.4-5.27-18-11-4.75-7.13-8.5-15-7.16-23.7 2.38-9.78 9.23-16.4 17.6-21.6 8.31-4.67 19.8-6.97 28.4-2zm-30.2 24c-1.95 3.1-2.42 5.41-2.29 9.05 1.51 4.13 3.07 6.93 7 9 5.47 1.64 9.3 0.74 14.4-1.51 5.36-3.02 11-6.91 13.6-12.6 0.7-3.69 0-5.87-1.67-9.16-3.38-4.17-3.38-4.17-8.22-6.04-9.41-0.63-17.1 4.09-22.8 11.3z" fill="#000100"/>
<path transform="translate(927,79)" d="m0 0c31.5 6.58 31.5 6.58 37.9 14.2 2.05 5.03 1.73 9.12-0.13 14.1-2.84 4.36-5.92 5.95-10.8 7.69 0.78 0.56 1.57 1.11 2.38 1.69 2.84 2.5 3.79 3.65 4.62 7.31-0.19 5.92-1.17 9.3-5 14-4.81 4.23-9.48 4.44-15.7 4.43-9.27-0.61-18.4-3.86-27.3-6.43 0.65-6.52 2.05-12.7 3.69-19 0.39-1.54 0.39-1.54 0.79-3.11 0.56-2.16 1.11-4.32 1.67-6.47 0.85-3.31 1.7-6.63 2.55-9.94 0.53-2.1 1.07-4.2 1.61-6.29 0.38-1.49 0.38-1.49 0.77-3.01 0.24-0.92 0.48-1.83 0.72-2.78 0.21-0.8 0.42-1.61 0.63-2.44 0.57-1.97 0.57-1.97 1.57-3.97zm11 15-2 11c2.48 1.24 4.24 1.17 7 1.19 1.33 0.02 1.33 0.02 2.69 0.04 2.51 0 2.51 0 4.31-2.23 0.5-2.96 0.5-2.96 0-6-2.35-2.84-4.74-3.23-8.25-3.69-1.24-0.1-2.48-0.2-3.75-0.31zm-5 22c-0.53 1.41-1.05 2.83-1.56 4.25-0.29 0.79-0.58 1.58-0.88 2.39-0.62 2.59-0.63 3.93 0.44 6.36 3.76 1.25 7.07 1.45 11 1 2.47-1.51 2.88-2.72 4-5.38 0.25-2.82 0.25-2.82-1.94-5.37-3.92-2.88-6.26-3.01-11.1-3.25z" fill="#000100"/>
<path transform="translate(1243,729)" d="m0 0c3.21 1.38 5.05 2.92 7.25 5.62 0.52 0.64 1.04 1.27 1.58 1.92 0.58 0.72 0.58 0.72 1.17 1.46-0.58 0.62-0.58 0.62-1.17 1.25-4.73 5.24-8.91 10.6-9.33 17.9 0.6 4.63 1.35 6.43 4.5 9.88 6.91 4.9 12.4 7.6 21 7 5.11-1.95 7.73-6.2 10-11v-3c-2.97-0.99-5.94-1.98-9-3l-4 8c-3.49-1.11-6.77-2.26-10-4 0.67-4.99 2.71-9.23 4.81-13.8 0.52-1.17 0.52-1.17 1.04-2.36 0.35-0.74 0.69-1.49 1.04-2.25 0.31-0.67 0.62-1.35 0.94-2.05 1.17-1.59 1.17-1.59 2.92-2.49 3.32-0.15 5.39 1.13 8.33 2.65 1.16 0.59 2.32 1.18 3.51 1.78 1.22 0.64 2.44 1.27 3.66 1.91 1.23 0.63 2.47 1.26 3.7 1.89 3.02 1.55 6.04 3.1 9.05 4.67-1.31 12.9-5.74 25.3-15.3 34.4-5.71 4.53-12.5 6.38-19.7 5.62-10.2-2.2-20.7-6.89-26.7-15.8-4.35-7.46-5.42-14.8-3.31-23.2 3.25-8.49 7.54-16.5 14-23z" fill="#000100"/>
<path transform="translate(378,799)" d="m0 0c15 29.4 15 29.4 13 38-2.25 4.65-4.95 7.38-9.38 10-7.61 2.1-12.6 1.03-19.6-2-0.28 0.73-0.56 1.46-0.86 2.22-1.03 2.52-2.18 4.9-3.45 7.32-0.44 0.83-0.87 1.65-1.32 2.51-0.45 0.85-0.91 1.7-1.37 2.57-0.45 0.86-0.9 1.72-1.37 2.61-1.77 3.36-3.52 6.6-5.63 9.77-1.37-2.24-2.72-4.49-4.06-6.75-0.59-0.95-0.59-0.95-1.18-1.92-2.83-4.8-2.83-4.8-2.52-7.28 0.86-2.31 1.95-4.18 3.3-6.24 0.75-1.17 0.75-1.17 1.51-2.36 1.05-1.64 2.11-3.27 3.18-4.9 0.49-0.78 0.99-1.56 1.5-2.36 0.46-0.71 0.92-1.42 1.39-2.15 1.06-2.46 0.79-3.57-0.12-6.04-4.74 1.44-8.99 3.37-13.4 5.62-2.18 1.12-4.37 2.23-6.62 3.38l-7-14c12.1-6.8 24.3-13.4 36.5-19.9 1.16-0.62 2.32-1.23 3.51-1.87 1.03-0.55 2.06-1.1 3.13-1.66 1.88-1.03 3.73-2.12 5.54-3.26 2.31-1.3 2.31-1.3 5.31-1.3zm-11.1 22c-1.1 0.56-2.2 1.11-3.33 1.69-0.84 0.43-1.68 0.86-2.55 1.31 1.46 4.85 2.46 7.42 7 10 3.61 0 5.44-0.63 8.44-2.62 1.9-2.39 1.9-2.39 1.44-5.88-0.71-2.83-1.39-5.02-2.88-7.5-3.12 0-5.37 1.59-8.12 3z" fill="#000100"/>
<path transform="translate(818 60.9)" d="m0 0c3.23 0.09 6.46 0.2 9.69 0.32 1.1 0.03 2.21 0.05 3.34 0.08 10.4 0.38 20.2 1.9 27.7 9.67 5.61 8.44 6.17 17.9 4.54 27.8-1.91 7.27-5.47 13.6-12 17.6-5.58 2.59-10 3.88-16.2 3.82-1.24 0-2.49-0.01-3.77-0.01-1.29-0.02-2.57-0.04-3.89-0.06-1.31 0-2.62-0.01-3.97-0.02-3.22-0.03-6.44-0.06-9.66-0.1-0.13-13 0.04-25.9 0.37-38.8 0.05-1.64 0.09-3.29 0.13-4.94 0.05-2.34 0.12-4.67 0.18-7.01 0.02-0.71 0.04-1.43 0.05-2.16 0.19-6.01 0.19-6.01 3.52-6.11zm11.8 13.1c-0.95 11.4-1.11 22.6-1 34 4.98 0.35 8.85 0.54 13.4-1.63 3.93-3.64 5.4-6.91 5.99-12.2 0.02-1.37 0.02-2.75 0.01-4.12 0.02-0.69 0.04-1.37 0.06-2.08-0.01-5.11-1.3-8-4.5-11.9-4.31-2.71-9.08-2.19-14-2z" fill="#000100"/>
<path transform="translate(908,1030)" d="m0 0c0.25 0.51 0.5 1.01 0.76 1.53 4.69 9.46 9.42 18.9 14.4 28.2 3.22 6.08 6.41 12.2 9.5 18.3 0.35 0.68 0.69 1.35 1.04 2.04 2.34 4.66 2.34 4.66 2.34 6.9-5.38 1.19-10.4 2.29-16 2-0.67-1.29-1.34-2.58-2-3.88-0.37-0.71-0.74-1.43-1.12-2.17-0.88-1.95-0.88-1.95-0.88-3.95-7.26 0.99-14.5 1.98-22 3v11c-5.57 2.26-11.1 2.57-17 3 1.46-13.6 3.49-27.1 5.62-40.6l0.99-6.27c0.79-5.06 1.59-10.1 2.39-15.2 4.61-1.35 9.06-2.43 13.8-3.12 1.12-0.17 2.24-0.34 3.4-0.51 2.79-0.37 2.79-0.37 4.79-0.37zm-10 12c-0.34 3.19-0.67 6.37-1 9.56-0.1 0.9-0.19 1.79-0.29 2.72-0.09 0.88-0.18 1.75-0.27 2.66-0.09 0.8-0.17 1.6-0.26 2.43-0.22 3.2-0.18 6.42-0.18 9.63 6.93-0.99 6.93-0.99 14-2-2.62-8.64-6.31-16.8-10-25h-2z" fill="#000100"/>
<path transform="translate(1309,529)" d="m0 0c0.49 6.93 0.49 6.93 1 14-10.4 1.49-10.4 1.49-21 3 0.49 9.4 0.49 9.4 1 19 4.62-0.65 4.62-0.65 9.24-1.32 4.29-0.58 8.44-0.86 12.8-0.68 1.88 1.88 1.43 4.98 1.62 7.5 0.1 1.19 0.2 2.37 0.29 3.59 0.03 0.96 0.06 1.92 0.09 2.91-1.59 1.59-3.39 1.4-5.59 1.66-0.98 0.12-1.96 0.24-2.97 0.37-1.06 0.12-2.13 0.25-3.23 0.38-1.09 0.13-2.18 0.26-3.31 0.4-2.32 0.28-4.63 0.55-6.95 0.83-3.54 0.42-7.07 0.85-10.6 1.28-2.25 0.27-4.5 0.53-6.75 0.8-1.06 0.13-2.11 0.26-3.2 0.39-1 0.12-1.99 0.23-3.02 0.36-0.87 0.1-1.74 0.2-2.64 0.31-3.23 0.26-6.48 0.22-9.73 0.22l-2-15c2.69-0.34 5.37-0.67 8.06-1 1.13-0.14 1.13-0.14 2.28-0.29 4.59-0.56 9.03-0.81 13.7-0.71-0.16-1.26-0.33-2.52-0.5-3.81-0.52-5.38-0.5-10.8-0.5-16.2l-25 3c-0.35-2.45-0.7-4.91-1.06-7.44-0.12-0.77-0.23-1.55-0.35-2.34-0.24-1.74-0.41-3.48-0.59-5.22 1.64-1.64 3.64-1.42 5.9-1.68 1.04-0.12 2.09-0.25 3.17-0.37 1.7-0.2 1.7-0.2 3.45-0.4 1.74-0.2 1.74-0.2 3.52-0.4 2.47-0.28 4.94-0.57 7.4-0.84 3.78-0.43 7.56-0.87 11.3-1.31 2.39-0.28 4.79-0.55 7.18-0.82 1.13-0.13 2.26-0.27 3.43-0.4 1.06-0.12 2.11-0.24 3.2-0.36 0.93-0.1 1.86-0.21 2.81-0.32 2.61-0.1 2.61-0.1 7.61 0.9z" fill="#000100"/>
<path transform="translate(860,1041)" d="m0 0c0.19 5.53 0.37 11.1 0.54 16.6 0.06 1.87 0.12 3.75 0.18 5.63 0.1 2.71 0.18 5.43 0.26 8.14 0.03 0.83 0.06 1.66 0.09 2.51 0.21 8.25-0.72 15.6-6.07 22.1-5.93 5.93-12.9 7.18-21.1 7.38-7.11-0.18-12-1.04-17.7-5.57-4.53-5.66-7.39-11.7-7.36-19v-2.48c0-0.88 0.01-1.76 0.01-2.66s0.01-1.81 0.01-2.74c0-2.88 0.01-5.77 0.03-8.65 0-1.96 0.01-3.91 0.01-5.87 0.01-4.79 0.03-9.59 0.05-14.4h15c0.04 1.25 0.08 2.49 0.12 3.78 0.15 4.63 0.33 9.26 0.51 13.9 0.08 2 0.15 4.01 0.21 6.01 0.1 2.88 0.21 5.76 0.33 8.64 0.02 0.9 0.05 1.79 0.07 2.71 0.25 5.17 0.75 8.29 4.76 12 2.48 0.64 2.48 0.64 5.06 0.38 1.29-0.06 1.29-0.06 2.6-0.11 2.49-0.21 2.49-0.21 5.34-1.27 1.05-2.76 1.12-5.39 1.11-8.31v-2.55c0-0.89-0.01-1.79-0.01-2.72 0-0.92-0.01-1.85-0.01-2.81 0-2.95-0.01-5.91-0.03-8.86 0-2.01-0.01-4.01-0.01-6.02-0.01-4.91-0.03-9.82-0.05-14.7 1.92-0.17 3.83-0.33 5.75-0.5 1.6-0.14 1.6-0.14 3.23-0.28 2.34-0.17 4.68-0.22 7.02-0.22z" fill="#000100"/>
<path transform="translate(691,69)" d="m0 0c1.91 2.2 3.38 4.21 4.91 6.66 0.69 1.04 0.69 1.04 1.38 2.1 1.46 2.24 2.9 4.49 4.33 6.74 1.42 2.18 2.84 4.36 4.25 6.54 0.95 1.45 1.89 2.91 2.83 4.36 3.85 5.97 7.86 11.8 12 17.6 3.33 4.76 3.33 4.76 3.33 6.97-2.1 0.67-4.21 1.34-6.31 2-1.17 0.37-2.35 0.74-3.55 1.12-3.14 0.88-3.14 0.88-6.14 0.88l-5-9c-9.4 2.47-9.4 2.47-19 5v11c-2.1 0.67-4.21 1.34-6.31 2-1.17 0.37-2.35 0.74-3.55 1.12-3.14 0.88-3.14 0.88-6.14 0.88-0.14-14 0.26-27.8 1-41.8 0.1-1.88 0.19-3.77 0.29-5.65 0.23-4.54 0.47-9.07 0.71-13.6 2.56-0.84 5.12-1.67 7.69-2.5 1.08-0.36 1.08-0.36 2.18-0.72 8.01-2.56 8.01-2.56 11.1-1.78zm-9 12 1 26c4.29-0.99 8.58-1.98 13-3-1.29-5.16-3.78-9.17-6.44-13.8-0.5-0.89-1-1.78-1.52-2.69-0.49-0.84-0.97-1.68-1.47-2.54-0.45-0.77-0.89-1.55-1.35-2.34-0.4-0.55-0.8-1.11-1.22-1.68h-2z" fill="#000100"/>
<path transform="translate(1274,387)" d="m0 0c0.67 1.77 1.34 3.54 2 5.31 0.37 0.99 0.74 1.97 1.12 2.99 0.88 2.7 0.88 2.7 0.88 5.7-1.56 0.64-1.56 0.64-3.15 1.3-3.87 1.6-7.73 3.21-11.6 4.83-1.67 0.7-3.34 1.4-5.01 2.08-2.41 1-4.81 2.01-7.21 3.02-0.75 0.3-1.49 0.61-2.26 0.92-4.43 1.89-7.13 3.65-9.79 7.85-0.48 2.87 0.03 5.27 1 8 1.91 2.75 1.91 2.75 5 4 5.65-0.34 10.3-1.64 15.5-3.94 0.67-0.29 1.34-0.58 2.03-0.87 2.11-0.91 4.22-1.83 6.32-2.75 2.13-0.93 4.25-1.85 6.38-2.76 1.32-0.57 2.64-1.14 3.95-1.72 2.81-1.22 4.76-1.96 7.86-1.96 0.84 1.96 1.67 3.92 2.5 5.88 0.7 1.63 0.7 1.63 1.41 3.3 1.09 2.82 1.09 2.82 1.09 4.82-4.63 1.97-9.28 3.93-13.9 5.87-1.58 0.66-3.15 1.33-4.72 2-22.4 9.52-22.4 9.52-31.2 7.01-6.96-2.87-10.8-7.24-14.1-13.9-2.95-7.4-4.3-14-1.81-21.7 4.45-8.14 11.9-12.2 20.3-15.5 0.7-0.29 1.39-0.57 2.11-0.86 1.45-0.59 2.91-1.18 4.37-1.77 2.24-0.89 4.46-1.8 6.69-2.71 1.43-0.58 2.85-1.15 4.27-1.73 1-0.4 1-0.4 2.02-0.82 2.85-1.14 4.95-1.88 8.06-1.88z" fill="#000100"/>
<path transform="translate(1207,808)" d="m0 0c2.96 3.47 5.08 6.87 7 11-0.61 0.45-1.23 0.89-1.86 1.36-6.2 4.37-6.2 4.37-10.1 10.6 0.21 2.74 0.21 2.74 1 5 5.42-0.5 9.19-1.89 13.9-4.5 11-5.75 11-5.75 17.1-3.86 5.82 2.55 9.22 6.2 12.2 11.8 1.92 7.16 0.05 12.3-3.31 18.6-2 3.25-2 3.25-4 6-0.62 0.87-1.24 1.73-1.88 2.62-2.49 2.8-4.81 4.62-8.12 6.38-4.85 0.12-8.34-3.14-12-6 1.35-4.04 3.47-4.69 7-7 2.69-2.44 2.69-2.44 5-5 0.6-0.64 1.2-1.28 1.81-1.94 1.6-2.76 1.4-4.93 1.19-8.06-6.14-0.51-9.6 1-14.9 4-6 3.2-10.2 5.23-17.1 4-5.98-2.07-9.19-5.96-12.4-11.3-1.75-7.57 0.83-13.6 4.64-20.1 3.93-5.83 8.78-9.94 14.7-13.6z" fill="#000100"/>
<path transform="translate(442 890)" d="m0 0c9.36 5.08 14.6 13.2 18.1 23.1v2c-1.62 0.67-3.25 1.34-4.87 2-0.91 0.37-1.81 0.74-2.74 1.13-2.39 0.87-2.39 0.87-4.39 0.87-0.44-0.98-0.89-1.97-1.35-2.99-0.61-1.29-1.22-2.59-1.83-3.88-0.3-0.65-0.59-1.3-0.89-1.98-1.47-3.06-2.56-4.92-5.48-6.72-2.69-0.76-2.69-0.76-5.45 1.57 0.47 4.85 1.31 9.35 2.56 14.1 1.57 6.17 2.47 10.6-0.12 16.6-2.96 4.58-6.51 7.6-11.8 9.01-5.79 0.83-10.6 0.54-15.6-2.64-7.21-5.77-13.4-13-16-22 1-3.56 3.18-5.15 6.13-7.25 0.72-0.52 1.45-1.04 2.19-1.58 0.56-0.38 1.11-0.77 1.68-1.17 0.55 1.12 1.09 2.24 1.65 3.4 0.72 1.47 1.44 2.94 2.17 4.42 0.53 1.1 0.53 1.1 1.08 2.23 0.35 0.71 0.7 1.43 1.06 2.16 0.48 0.98 0.48 0.98 0.97 1.98 1.59 2.68 3.13 4.46 6.07 5.56 2.21 0.42 2.21 0.42 5-0.75 0.32-4.63-0.27-8.33-1.5-12.8-1.78-6.83-3.07-13 0.13-19.5 6.74-7.63 13.3-11.2 23.3-6.75z" fill="#000100"/>
<path transform="translate(1176,848)" d="m0 0c3.92 1.83 6.74 4.18 10 7-1.62 3.9-4.28 6.71-7.12 9.75-0.47 0.51-0.94 1.01-1.42 1.54-1.15 1.24-2.31 2.47-3.46 3.71 4.01 4.18 4.01 4.18 9 7 0.24-0.56 0.49-1.12 0.74-1.7 1.49-2.72 3.3-4.76 5.38-7.05 0.73-0.8 1.45-1.6 2.2-2.42 0.83-0.91 0.83-0.91 1.68-1.83 1.34 0.9 2.68 1.82 4 2.75 0.74 0.51 1.48 1.02 2.25 1.55 0.58 0.56 1.15 1.12 1.75 1.7 0 4.75-0.93 5.67-3.88 9.25-0.71 0.89-1.43 1.78-2.17 2.7-0.97 1.02-0.97 1.02-1.95 2.05h-2c1.16 3.49 2.14 4.1 5.06 6.19 0.74 0.53 1.47 1.06 2.23 1.6 0.56 0.4 1.13 0.8 1.71 1.21 4.25-4.12 8.14-8.51 12-13 4 1.37 6.8 3.26 10 6-1.42 4.36-3.56 7-6.69 10.3-0.89 0.96-1.78 1.92-2.7 2.9-0.86 0.92-1.72 1.84-2.61 2.79-1.32 1.47-2.63 2.95-3.94 4.44-0.52 0.59-1.05 1.19-1.59 1.81-1.56 1.86-3.03 3.79-4.47 5.75-3.86-1.6-6.58-4.22-9.56-7.06-3.86-3.61-7.75-7.08-11.9-10.4-4.85-3.9-9.43-8.05-14-12.3-3.43-3.22-6.95-6.27-10.6-9.25 1.65-4.11 4.61-6.98 7.62-10.1 5.11-5.42 9.85-11 14.4-16.9z" fill="#000100"/>
<path transform="translate(510,950)" d="m0 0c7.08 4.42 13.6 9.49 20.2 14.6 0.72 0.56 1.44 1.11 2.17 1.68 0.65 0.5 1.29 1 1.96 1.52 1.64 1.28 1.64 1.28 3.64 2.21-1.49 4.59-3.85 7.44-7 11-8.45-5.52-8.45-5.52-11.8-8.44-2.03-1.77-2.03-1.77-4.31-1.56-2.44 1.3-3.54 2.6-4.88 5 1.31 3.93 3.82 5.37 7.06 7.69 0.57 0.41 1.14 0.83 1.72 1.26 1.4 1.02 2.81 2.04 4.22 3.05-1.83 3.92-4.18 6.74-7 10-4.3-1.98-7.94-4.76-11.8-7.54-2.07-1.64-2.07-1.64-4.24-1.46-1.4 1.45-1.4 1.45-2.69 3.31-0.46 0.62-0.91 1.23-1.38 1.87-0.31 0.6-0.62 1.2-0.93 1.82 1.36 4.07 4.13 5.42 7.56 7.69 0.62 0.41 1.23 0.83 1.87 1.26 1.52 1.02 3.04 2.04 4.57 3.05-1.67 4.59-3.79 7.37-7 11-5.31-2.86-9.9-6.12-14.6-9.94-0.64-0.51-1.27-1.02-1.92-1.55-3.87-3.14-7.7-6.31-11.5-9.51 3.99-6.27 8.38-12.2 12.9-18 4.56-5.86 9.03-11.8 13.5-17.7 3.13-4.12 6.27-8.23 9.53-12.2z" fill="#000100"/>
<path transform="translate(408,847)" d="m0 0c3.28 4.03 6.37 8.18 9.44 12.4 0.46 0.63 0.93 1.26 1.41 1.92 0.92 1.27 1.85 2.54 2.77 3.81 0.93 1.28 1.89 2.54 2.88 3.79 1.41 1.83 1.41 1.83 3.5 5.1-0.34 2.6-0.64 3.66-2.56 5.48-0.62 0.42-1.24 0.84-1.88 1.27-0.61 0.43-1.23 0.86-1.87 1.3-1.69 0.95-1.69 0.95-3.69 0.95-1.63-2.09-3.14-4.18-4.62-6.38-0.43-0.6-0.85-1.2-1.28-1.82-3.1-4.53-3.1-4.53-3.1-6.8-1.09 0.47-2.19 0.95-3.31 1.44-2.22 0.96-4.39 1.79-6.69 2.56 1.1 1.75 2.21 3.5 3.31 5.25 0.62 0.97 1.23 1.95 1.87 2.95 1.74 2.75 1.74 2.75 3.55 5.03 1.27 1.77 1.27 1.77 1.27 3.77-2.19 1.51-2.19 1.51-5 3.12-0.93 0.54-1.86 1.08-2.81 1.64-0.72 0.41-1.45 0.82-2.19 1.24-1.51-1.95-3-3.91-4.5-5.88-0.43-0.55-0.86-1.11-1.3-1.68-3.2-4.21-3.2-4.21-3.2-6.44-1.27 0.6-2.54 1.2-3.81 1.81-0.71 0.34-1.42 0.68-2.15 1.02-2.38 1.24-2.38 1.24-5.04 4.17 3.63 4.95 7.26 9.9 11 15-5.36 5.36-5.36 5.36-9 7-3.92-1.25-5.57-3.79-7.86-7.09-0.7-1.01-1.4-2.02-2.13-3.07-0.73-1.06-1.45-2.12-2.2-3.22-0.73-1.05-1.47-2.1-2.23-3.19-5.93-8.59-5.93-8.59-6.58-12.4 11.8-8.56 23.6-17 35.6-25.3 4.14-2.89 8.28-5.78 12.4-8.68z" fill="#000100"/>
<path transform="translate(356,757)" d="m0 0c3.84 4.66 5.73 10.1 7.98 15.7 0.77 1.89 1.56 3.78 2.34 5.66 0.73 1.79 0.73 1.79 1.48 3.61 0.44 1.09 0.89 2.18 1.35 3.3 0.85 2.76 0.85 2.76-0.15 5.76-2.29 0.95-2.29 0.95-5.06 1.69-1.38 0.37-1.38 0.37-2.79 0.76-0.71 0.18-1.42 0.36-2.15 0.55-2.72-5.25-5.01-10.4-7-16-3.12 0.49-6 1-9 2 1.88 6.54 1.88 6.54 4.19 12.9 0.81 2.06 0.81 2.06 0.81 5.06l-11 4-6-15c-4.07 0.58-8 1.15-12 2 0.51 1.19 1.01 2.38 1.53 3.61 0.66 1.57 1.31 3.14 1.97 4.7 0.33 0.79 0.67 1.57 1.01 2.38 0.32 0.76 0.63 1.52 0.96 2.3 0.44 1.04 0.44 1.04 0.89 2.11 0.64 1.9 0.64 1.9 0.64 4.9l-11 4c-3.75-7.23-6.91-14.5-9.81-22.1-0.41-1.06-0.82-2.11-1.23-3.19-0.99-2.56-1.98-5.13-2.96-7.69 5.9-2.47 11.8-4.94 17.7-7.42 2.01-0.83 4.01-1.67 6.01-2.51 21.4-8.94 21.4-8.94 31.3-13.1z" fill="#000100"/>
<path transform="translate(598,98)" d="m0 0c1.17 2.07 1.17 2.07 2.19 4.56 0.34 0.83 0.69 1.66 1.04 2.51 0.25 0.63 0.51 1.27 0.77 1.93-2.46 1.34-4.91 2.67-7.38 4-1.04 0.57-1.04 0.57-2.11 1.16-5.28 2.84-5.28 2.84-7.51 2.84l4 8c3.83-0.6 6.77-1.75 10.2-3.56 4.6-2.44 4.6-2.44 6.81-2.44 0.67 1.46 1.34 2.92 2 4.38 0.37 0.81 0.74 1.62 1.12 2.46 0.88 2.16 0.88 2.16 0.88 4.16l-14 7c0.92 3.69 1.95 7.34 3 11 0.5-0.24 1.01-0.48 1.53-0.73 2.28-1.1 4.56-2.18 6.85-3.27 1.19-0.57 1.19-0.57 2.4-1.16 0.76-0.36 1.52-0.72 2.31-1.09 0.7-0.34 1.4-0.67 2.12-1.02 1.79-0.73 1.79-0.73 3.79-0.73 0.7 1.43 1.38 2.87 2.06 4.31 0.39 0.8 0.77 1.6 1.16 2.43 0.78 2.26 0.78 2.26-0.22 5.26-2.68 1.63-2.68 1.63-6.22 3.36-0.62 0.3-1.24 0.61-1.88 0.92-1.98 0.98-3.97 1.94-5.96 2.91-1.35 0.66-2.69 1.32-4.04 1.98-3.29 1.62-6.59 3.23-9.9 4.83-2.22-2.05-3.66-3.94-5.01-6.64-0.36-0.72-0.72-1.44-1.1-2.19-0.38-0.77-0.77-1.55-1.16-2.35l-1.23-2.46c-0.86-1.72-1.72-3.44-2.57-5.16-1.29-2.6-2.58-5.19-3.88-7.78-4.34-8.69-8.52-17.4-12-26.4 5.32-2.69 10.6-5.36 16-8 0.66-0.32 1.31-0.65 1.99-0.98 1.77-0.88 3.54-1.73 5.32-2.58 1.54-0.75 1.54-0.75 3.12-1.51 2.57-0.93 2.57-0.93 5.57 0.07z" fill="#000100"/>
<path transform="translate(993,102)" d="m0 0c6.95 2.24 13.7 4.77 20.5 7.5 1.5 0.59 1.5 0.59 3.03 1.18 0.95 0.39 1.9 0.77 2.88 1.16 0.86 0.35 1.71 0.69 2.6 1.04 1.99 1.12 1.99 1.12 2.99 4.12-0.78 2.26-0.78 2.26-1.94 4.69-0.57 1.21-0.57 1.21-1.15 2.45-0.3 0.61-0.6 1.23-0.91 1.86-1.7-0.65-1.7-0.65-3.43-1.31-1.48-0.57-2.96-1.13-4.45-1.69-1.11-0.43-1.11-0.43-2.26-0.87-3.82-1.56-3.82-1.56-7.86-2.13-0.99 2.64-1.98 5.28-3 8l15 6c-0.83 5-1.65 7.72-4 12-1.46-0.54-1.46-0.54-2.96-1.09-1.28-0.47-2.57-0.94-3.85-1.41-0.65-0.24-1.29-0.48-1.95-0.72-2.89-1.05-5.14-1.78-8.24-1.78l-4 10c2.23 0.62 2.23 0.62 4.5 1.25 4.84 1.44 9.06 3.37 13.5 5.75l-4 11c-6.95-2.24-13.7-4.77-20.5-7.5-1-0.39-2-0.78-3.03-1.18-1.42-0.58-1.42-0.58-2.88-1.16-0.86-0.35-1.71-0.69-2.6-1.04-1.99-1.12-1.99-1.12-2.99-4.12 0.54-1.98 0.54-1.98 1.49-4.25 0.35-0.86 0.7-1.71 1.06-2.59 0.39-0.93 0.78-1.85 1.18-2.8s0.79-1.9 1.2-2.89c1.26-3.05 2.54-6.11 3.82-9.16 1.26-3.03 2.52-6.07 3.78-9.11 0.78-1.89 1.57-3.77 2.36-5.66 2.15-5.15 4.19-10.3 6.11-15.5z" fill="#000100"/>
<path transform="translate(1091,941)" d="m0 0c0.04 1.71 0.04 1.71 0.08 3.45 0.45 31 0.45 31 14.9 57.6-10.1 8.09-10.1 8.09-13 7.8-3.82-1.57-5.4-6.45-7.24-9.99-5.6-10.1-16.4-14.6-26.1-20.1l-11-6.15c-2.67-1.6-2.67-1.6-4.67-3.6 1.86-1.38 3.74-2.72 5.62-4.06 1.05-0.76 2.09-1.51 3.17-2.29 3.21-1.65 3.21-1.65 6.12-1.71 4.11 1.41 7.32 3.57 10.8 6.06 4.49 3.22 4.49 3.22 9.25 6l-2-25c2.12-1.32 4.25-2.64 6.44-4 1-0.63 1-0.63 2.03-1.27 4.42-2.73 4.42-2.73 5.53-2.73z" fill="#000100"/>
<path transform="translate(1291,467)" d="m0 0c0.6 0.29 1.21 0.59 1.83 0.89 6.56 3.83 9.41 11.1 11.8 18 0.53 3.28 0.44 6.55 0.4 9.86 0 0.7-0.01 1.39-0.01 2.11-0.01 1.72-0.03 3.43-0.05 5.14-1.22 0.02-2.43 0.04-3.69 0.06-0.68 0.01-1.37 0.03-2.07 0.04-2.49-0.11-4.81-0.56-7.24-1.1 0.05-0.94 0.09-1.88 0.14-2.85 0.24-7.59 0.24-7.59-1.52-14.9-4.62-3.96-9.55-4.46-15.5-4.05-6.61 0.99-11 2.94-16 7.55-1.76 3.53-1.88 6.46-1.12 10.2 1.76 4.46 3.82 8.73 6 13-1.41 0.53-2.83 1.05-4.25 1.56-0.79 0.29-1.58 0.58-2.39 0.88-2.67 0.63-3.89 0.76-6.36-0.44-5.84-9.04-8.17-19.5-6-30 2.91-7.71 8.85-12.3 16-16 9.62-4.07 20.6-4.99 30 0z" fill="#000100"/>
<path transform="translate(468,915)" d="m0 0c5.29 4.46 10.4 9.11 15.4 13.9 5.78 5.47 11.6 10.9 17.6 16.1-1.83 3.92-4.18 6.74-7 10-2.99-1.36-5.29-2.95-7.75-5.12-0.61-0.54-1.23-1.08-1.86-1.64-0.46-0.41-0.92-0.82-1.39-1.24-3.91 1.59-6.37 4.14-9.31 7.12-0.49 0.5-0.98 0.99-1.48 1.5-3.27 3.34-6.36 6.78-9.38 10.3-3.75 4.2-7.82 8.1-11.8 12l-2 2-11-10c1.73-3.46 2.8-5.03 5.45-7.61 0.68-0.67 1.37-1.35 2.07-2.04 0.72-0.69 1.43-1.39 2.17-2.1 4.8-4.68 9.42-9.42 13.8-14.5 1.74-2.01 3.56-3.9 5.46-5.75 0.58-0.58 1.17-1.15 1.77-1.75 0.43-0.41 0.85-0.83 1.29-1.25l-10-10c1.65-4.29 4.74-6.88 8-10z" fill="#000100"/>
<path transform="translate(1044,975)" d="m0 0c1.17 2.29 1.17 2.29 2.19 5.06 0.34 0.92 0.69 1.84 1.04 2.79 0.25 0.71 0.51 1.42 0.77 2.15-1.79 1.01-3.58 2-5.38 3-0.99 0.56-1.99 1.11-3.02 1.69-2.6 1.31-2.6 1.31-4.6 1.31 0.44 0.91 0.44 0.91 0.88 1.84 2.9 6.04 5.78 12.1 8.67 18.1 0.91 1.91 1.82 3.82 2.74 5.73 1.12 2.33 2.23 4.66 3.33 7 0.5 1.03 0.5 1.03 1 2.08 1.44 3.03 2.76 5.92 3.38 9.23-1.96 1-3.91 2-5.88 3-1.09 0.56-2.18 1.11-3.3 1.69-2.82 1.31-2.82 1.31-4.82 1.31l-20-41c-4.8 0.73-4.8 0.73-8.06 2.56-2.94 1.44-2.94 1.44-6.94 1.44-0.67-1.46-1.34-2.92-2-4.38-0.37-0.81-0.74-1.62-1.12-2.46-0.88-2.16-0.88-2.16-0.88-4.16 7.32-3.69 14.6-7.36 22-11 0.88-0.44 1.76-0.87 2.66-1.32 2.34-1.16 4.68-2.3 7.03-3.43 1.05-0.52 1.05-0.52 2.12-1.05 4.84-2.32 4.84-2.32 8.19-1.2z" fill="#000100"/>
<path transform="translate(338,706)" d="m0 0c5 14.1 8.95 28.6 13 43l-3.75 1.44c-0.7 0.26-1.39 0.53-2.11 0.81-2.14 0.75-2.14 0.75-6.14 1.75l-4-13c-3.31 0-5.14 0.2-8.19 1.12-0.81 0.24-1.62 0.48-2.46 0.74-1.31 0.39-1.31 0.39-2.64 0.8-1.85 0.55-3.69 1.1-5.54 1.65-2.91 0.88-5.81 1.76-8.72 2.64-2.81 0.85-5.62 1.68-8.43 2.52-0.87 0.27-1.74 0.54-2.64 0.81-0.81 0.24-1.62 0.48-2.45 0.73-0.71 0.22-1.43 0.43-2.16 0.65-1.77 0.34-1.77 0.34-3.77-0.66-0.89-2.36-0.89-2.36-1.69-5.31-0.41-1.45-0.41-1.45-0.82-2.93-0.5-2.82-0.54-4.13 0.51-6.76 1.66-0.94 1.66-0.94 3.83-1.56 0.81-0.24 1.62-0.48 2.46-0.72 0.88-0.24 1.76-0.49 2.67-0.74 0.9-0.26 1.8-0.52 2.73-0.79 2.89-0.83 5.79-1.63 8.69-2.44 1.94-0.56 3.89-1.12 5.83-1.68 1.85-0.53 3.71-1.06 5.56-1.59 0.88-0.25 1.76-0.5 2.66-0.75 0.82-0.23 1.64-0.46 2.48-0.69 1.08-0.3 1.08-0.3 2.18-0.61 1.91-0.43 1.91-0.43 4.91-0.43l-4-15c8.62-3 8.62-3 12-3z" fill="#000100"/>
<path transform="translate(269,542)" d="m0 0h12v20l12-1 1-17h12v17h22v15h-58c-1.12-10.1-1.12-10.1-1.1-15.4 0.01-1.1 0.01-2.2 0.01-3.33 0.01-1.11 0.02-2.23 0.03-3.38 0-1.15 0.01-2.31 0.01-3.49 0.01-2.82 0.03-5.63 0.05-8.45z" fill="#000100"/>
<path transform="translate(1197,258)" d="m0 0c4.34 1.55 6.53 4.89 9.19 8.44 0.97 1.27 1.94 2.53 2.92 3.8 0.48 0.63 0.97 1.27 1.47 1.92 2.74 3.54 5.6 6.98 8.45 10.4 0.97 1.19 0.97 1.19 1.97 2.4 1.11 1.33 1.11 1.33 2.25 2.68 1.75 2.32 1.75 2.32 1.87 4.32-1.75 3.12-4.29 4.83-7.12 7-4.29-1.59-6.32-4.43-9-8v-2c-5.44 2.38-9.52 5.7-14 9.5-1.5 1.25-3 2.51-4.5 3.76-0.74 0.62-1.49 1.25-2.27 1.89-3.38 2.8-6.83 5.52-10.3 8.23-0.6 0.46-1.21 0.93-1.82 1.42-1.38 1.07-2.75 2.13-4.12 3.2-3.57-3.54-6.92-7.04-10-11v-2c1.59-1.31 3.26-2.55 4.94-3.75 6.25-4.54 12.2-9.41 18.1-14.4 3.86-3.22 7.73-6.18 12-8.87-1.99-3.05-3.94-5.93-6.25-8.75-1.75-2.25-1.75-2.25-1.75-4.25 1.75-1.51 1.75-1.51 4-3.12 0.74-0.54 1.48-1.08 2.25-1.64 0.87-0.61 0.87-0.61 1.75-1.24z" fill="#000100"/>
<path transform="translate(949,1017)" d="m0 0c1.72 5.76 3.42 11.5 5.13 17.3l1.74 5.88c0.84 2.82 1.67 5.64 2.51 8.46 0.26 0.88 0.52 1.75 0.79 2.66 0.36 1.23 0.36 1.23 0.73 2.48 0.21 0.72 0.42 1.44 0.64 2.18 0.46 2.04 0.46 2.04 0.46 6.04 0.55-0.15 1.1-0.29 1.66-0.44 2.51-0.67 5.02-1.33 7.53-2 0.86-0.23 1.73-0.46 2.62-0.69 0.84-0.23 1.68-0.45 2.55-0.68 0.77-0.2 1.54-0.41 2.33-0.62 2.42-0.6 4.87-1.08 7.31-1.57l3 12c-3.98 1.25-7.97 2.49-12 3.74-1.35 0.42-2.7 0.84-4.06 1.26-6.95 2.18-13.9 4.35-21 6-2.42-6.23-4.46-12.5-6.39-18.9-0.31-1.02-0.62-2.05-0.94-3.1-0.64-2.15-1.29-4.3-1.93-6.44-0.99-3.3-1.99-6.58-3-9.87-0.63-2.09-1.25-4.19-1.88-6.28-0.3-0.98-0.6-1.96-0.92-2.98-0.27-0.91-0.54-1.83-0.82-2.77-0.36-1.2-0.36-1.2-0.73-2.43-0.43-2.41-0.16-3.91 0.61-6.21 1.77-0.5 3.54-1 5.31-1.5 0.99-0.28 1.97-0.56 2.99-0.84 2.7-0.66 2.7-0.66 5.7-0.66z" fill="#000100"/>
<path transform="translate(368,360)" d="m0 0 11 4c-0.83 4.15-1.84 7.38-3.43 11.2-0.49 1.19-0.97 2.37-1.47 3.59-0.25 0.61-0.51 1.22-0.77 1.85-0.77 1.87-1.53 3.74-2.29 5.6-4.07 9.91-4.07 9.91-6.04 13.7-18.1-7.17-36-14.5-54-22 0.47-1.44 0.95-2.87 1.43-4.31 0.26-0.8 0.53-1.6 0.8-2.42 0.84-2.46 1.76-4.87 2.77-7.27 9.16 2.4 17.8 6.06 26.5 9.69 2.19 0.91 4.39 1.82 6.58 2.72 1.36 0.56 2.72 1.12 4.07 1.68 3.32 1.44 3.32 1.44 6.85 1.91l8-20z" fill="#000100"/>
<path transform="translate(345,413)" d="m0 0c5.44 1.49 5.44 1.49 11 3-2.05 9.31-4.36 18.5-7.15 27.6-0.27 0.91-0.55 1.82-0.83 2.76-0.67 2.21-1.35 4.42-2.02 6.63-7.16-1.89-14.3-3.79-21.5-5.71-3.32-0.89-6.64-1.78-9.97-2.65-3.81-1.01-7.63-2.04-11.4-3.07-1.8-0.46-1.8-0.46-3.63-0.94-1.1-0.3-2.2-0.6-3.34-0.91-0.97-0.26-1.95-0.52-2.95-0.79-1.09-0.46-1.09-0.46-2.21-0.93-1.19-3.57-0.72-5.04 0.25-8.62 0.25-0.99 0.51-1.97 0.77-2.98 0.32-0.79 0.65-1.58 0.98-2.4 3.21-1.07 3.95-0.97 7.07-0.12 0.82 0.22 1.63 0.43 2.47 0.66 1.31 0.36 1.31 0.36 2.65 0.73 0.9 0.25 1.8 0.49 2.73 0.74 1.91 0.52 3.81 1.04 5.71 1.56 2.92 0.8 5.84 1.59 8.77 2.38 1.84 0.51 3.69 1.01 5.54 1.51 0.88 0.24 1.76 0.48 2.66 0.72 0.81 0.23 1.62 0.45 2.46 0.68 1.07 0.3 1.07 0.3 2.16 0.6 1.78 0.54 1.78 0.54 3.78 1.54 0.11-0.59 0.22-1.19 0.33-1.8 3.44-18 3.44-18 5.67-20.2z" fill="#000100"/>
<path transform="translate(1214,784)" d="m0 0c4.06 0.6 7.05 1.92 10.6 3.92 1.09 0.61 2.18 1.22 3.31 1.84 1.17 0.67 2.34 1.33 3.51 1.99 1.2 0.67 2.4 1.35 3.6 2.02 11.1 6.23 22 12.7 33 19.2-2.31 4.29-4.62 8.58-7 13-4.21-0.84-6.24-1.48-9.78-3.52-0.92-0.52-1.83-1.04-2.77-1.58-0.98-0.57-1.95-1.13-2.95-1.71-1.01-0.58-2.01-1.16-3.05-1.75-2.1-1.21-4.2-2.41-6.3-3.63-3.05-1.75-6.1-3.5-9.16-5.24-15.1-8.59-15.1-8.59-20-11.6 0.63-1.03 0.63-1.03 1.28-2.08 0.55-0.9 1.09-1.8 1.66-2.73 0.54-0.9 1.09-1.79 1.65-2.71 1.52-2.49 1.52-2.49 2.41-5.48z" fill="#000100"/>
<path transform="translate(320,613)" d="m0 0c0.5 7.42 0.5 7.42 1 15-20 1.87-40 3.61-60 5-1.13-5.36-1.1-10.6-1-16 41.7-4.43 41.7-4.43 60-4z" fill="#000100"/>
<path transform="translate(623,1012)" d="m0 0c10.6 3.08 10.6 3.08 15 5-2 7.09-4.42 13.9-7.16 20.8-0.59 1.47-0.59 1.47-1.18 2.97-0.82 2.05-1.64 4.1-2.47 6.15-1.26 3.15-2.51 6.3-3.76 9.45-0.8 2-1.6 3.99-2.4 5.99-0.38 0.95-0.75 1.89-1.14 2.86-0.35 0.87-0.7 1.74-1.06 2.63-0.3 0.77-0.61 1.53-0.93 2.32-0.9 1.88-0.9 1.88-2.9 3.88-1.98-0.76-3.96-1.53-5.94-2.31-1.1-0.43-2.2-0.86-3.34-1.3-2.72-1.39-2.72-1.39-3.72-4.39 0.63-2.28 0.63-2.28 1.71-4.97 0.39-1.02 0.79-2.03 1.2-3.07 0.44-1.09 0.88-2.18 1.33-3.3s0.89-2.25 1.34-3.4c1.43-3.59 2.86-7.18 4.3-10.8 0.96-2.42 1.92-4.84 2.87-7.25 1.35-3.41 2.7-6.81 4.06-10.2 0.41-1.01 0.81-2.02 1.22-3.07 0.36-0.89 0.72-1.78 1.08-2.69 0.68-1.74 1.3-3.51 1.89-5.28z" fill="#000100"/>
<path transform="translate(993,998)" d="m0 0c2.54 2.26 3.76 4.32 5.05 7.45 0.38 0.9 0.75 1.8 1.14 2.72 0.59 1.46 0.59 1.46 1.19 2.94 0.41 1 0.82 2 1.25 3.03 0.87 2.12 1.74 4.24 2.6 6.36 1.32 3.23 2.65 6.45 3.99 9.68 0.84 2.06 1.69 4.12 2.53 6.18 0.4 0.96 0.8 1.92 1.2 2.91 1.98 4.86 3.73 9.65 5.05 14.7-2.12 1.03-4.25 2.05-6.38 3.06-1.18 0.57-2.36 1.14-3.58 1.73-1 0.4-2.01 0.8-3.04 1.21-2.84-1.42-3.07-3.12-4.26-6.04-0.45-1.07-0.89-2.15-1.35-3.26-0.47-1.16-0.94-2.33-1.43-3.54-0.73-1.79-0.73-1.79-1.48-3.61l-3.09-7.59c-1.31-3.24-2.64-6.49-3.97-9.73-1.27-3.08-2.52-6.17-3.78-9.26-0.48-1.17-0.96-2.33-1.45-3.54-0.43-1.07-0.87-2.15-1.32-3.26-0.38-0.95-0.77-1.91-1.17-2.89-0.7-2.28-0.7-2.28 0.3-4.28 1.99-0.94 4.02-1.81 6.06-2.62 1.11-0.45 2.21-0.9 3.35-1.36 1.28-0.5 1.28-0.5 2.59-1.02z" fill="#000100"/>
<path transform="translate(1079,149)" d="m0 0c4.78 1.64 8.79 4.27 13 7-1.52 4.23-3.66 7.91-6.06 11.7-0.42 0.66-0.84 1.33-1.27 2.01-4.11 6.48-8.28 12.9-12.5 19.3-0.76 1.18-1.53 2.36-2.29 3.53-1.08 1.68-2.17 3.34-3.26 5.01-0.63 0.97-1.27 1.95-1.92 2.95-1.74 2.47-1.74 2.47-4.74 5.47l-12-8c3.28-6.05 6.76-11.8 10.6-17.5 1.06-1.57 2.11-3.13 3.17-4.7 0.53-0.79 1.06-1.58 1.61-2.4 2.59-3.88 5.13-7.79 7.66-11.7 0.46-0.7 0.91-1.4 1.37-2.12 2.26-3.49 4.46-6.99 6.57-10.6z" fill="#000100"/>
<path transform="translate(1284 612)" d="m0 0c6.13 4 8.7 9.16 11.6 15.7 1.49 2.48 2.64 3.16 5.31 4.18-0.15 1.45-0.29 2.91-0.44 4.37-0.08 0.81-0.16 1.62-0.25 2.46-0.31 2.17-0.31 2.17-1.31 4.17-4-0.24-6.41-0.55-9.63-3-2.55-3.22-4.46-6.49-6.36-10.1-0.87-1.85-0.87-1.85-2.01-2.89-2-0.05-4.01-0.05-6 0-1.35 2.68-1.14 4.81-1.13 7.81 0 1.04-0.01 2.07-0.01 3.14 0.12 2.8 0.5 5.32 1.14 8.05-1.63 0.69-3.25 1.38-4.88 2.06-0.9 0.38-1.81 0.76-2.74 1.16-2.38 0.78-2.38 0.78-4.38-0.22-3.6-9.73-2.75-20.5 1-30 1.9-3.28 4.06-5.46 7.37-7.38 4.62-1.1 8.27-1.11 12.8 0.5z" fill="#000100"/>
<path transform="translate(1317 631)" d="m0 0c3.38 1.06 3.38 1.06 5.31 2.75 1.4 3.03 1.47 5 1.07 8.31-1.07 2.82-1.07 2.82-3 5-4.09 1.29-6.07 1.46-9.94-0.44-2.33-2.89-2.8-4.86-2.55-8.58 1.24-5.09 4.09-6.95 9.11-7.04z" fill="#000100"/>
</svg>
